<?xml version="1.0" encoding="UTF-8" standalone="no"?>
<!-- Created with Inkscape (http://www.inkscape.org/) -->

<svg
   xmlns:dc="http://purl.org/dc/elements/1.1/"
   xmlns:cc="http://creativecommons.org/ns#"
   xmlns:rdf="http://www.w3.org/1999/02/22-rdf-syntax-ns#"
   xmlns:svg="http://www.w3.org/2000/svg"
   xmlns="http://www.w3.org/2000/svg"
   xmlns:sodipodi="http://sodipodi.sourceforge.net/DTD/sodipodi-0.dtd"
   xmlns:inkscape="http://www.inkscape.org/namespaces/inkscape"
   id="svg2"
   sodipodi:version="0.32"
   inkscape:version="0.48.2 r9819"
   width="1213"
   height="1217"
   viewBox="0 0 1213 1217"
   version="1.0"
   sodipodi:docname="Logo_Evry2.svg"
   inkscape:output_extension="org.inkscape.output.svg.inkscape">
  <metadata
     id="metadata7">
    <rdf:RDF>
      <cc:Work
         rdf:about="">
        <dc:format>image/svg+xml</dc:format>
        <dc:type
           rdf:resource="http://purl.org/dc/dcmitype/StillImage" />
        <dc:title></dc:title>
      </cc:Work>
    </rdf:RDF>
  </metadata>
  <defs
     id="defs5">
    <inkscape:perspective
       sodipodi:type="inkscape:persp3d"
       inkscape:vp_x="0 : 526.18109 : 1"
       inkscape:vp_y="0 : 1000 : 0"
       inkscape:vp_z="744.09448 : 526.18109 : 1"
       inkscape:persp3d-origin="372.04724 : 350.78739 : 1"
       id="perspective9" />
  </defs>
  <sodipodi:namedview
     inkscape:window-height="738"
     inkscape:window-width="1280"
     inkscape:pageshadow="2"
     inkscape:pageopacity="0.0"
     guidetolerance="10.0"
     gridtolerance="10.0"
     objecttolerance="10.0"
     borderopacity="1.0"
     bordercolor="#666666"
     pagecolor="#ffffff"
     id="base"
     showgrid="false"
     inkscape:zoom="0.047863598"
     inkscape:cx="-5921.1847"
     inkscape:cy="-785.85221"
     inkscape:window-x="-8"
     inkscape:window-y="-8"
     inkscape:current-layer="g3860"
     inkscape:window-maximized="1" />
  <g
     id="g2384"
     transform="translate(11.545602,16.322429)"
     inkscape:export-xdpi="90"
     inkscape:export-ydpi="90">
    <g
       id="g3860"
       transform="translate(-14.311705,-21.00589)">
      <path
         inkscape:connector-curvature="0"
         id="path2390"
         d="m 564.34168,1187.6452 c -109.41399,-47.1689 -217.20145,-105.496 -294.99995,-159.6334 -18.3276,-12.7536 -48.9139,-35.65194 -53.8878,-40.34294 l -3.6514,-3.4437 -4.2781,5.1366 c -2.353,2.8251 -8.7495,10.5365 -14.2144,17.13654 -27.2054,32.8556 -56.5545,64.4424 -97.103997,104.5077 -33.0768,32.6817 -85.3644,80.8483 -85.3644,78.6365 0,-0.2934 11.1375,-11.7036 24.75,-25.3559 73.399097,-73.6138 128.626297,-141.6886 171.550297,-211.45834 10.9954,-17.8721 20.8268,-35.917 18.5858,-34.1128 -1.2387,0.9972 -6.2458,-0.8555 -27.7017,-10.25 -14.4043,-6.3069 -26.8635,-11.4672 -27.687,-11.4672 -0.8236,0 -1.4973,0.5074 -1.4973,1.1275 0,1.4974 11.7587,15.2807 24.6201,28.8592 5.7089,6.0272 10.3776,11.5333 10.3749,12.2359 -0.01,1.798 -13.4271,23.0166 -15.3074,24.2026 -1.8233,1.1501 -4.3546,-1.0408 -28.1019,-24.3228 -72.540997,-71.1197 -104.911797,-137.1098 -102.311297,-208.5685 2.4778,-68.0867 33.2667,-134.6029 102.080197,-220.5339 20.5086,-25.6102 31.1065,-37.6824 80.3251,-91.5 52.064,-56.9288 74.014,-82.598 98.413,-115.0881 61.73077,-82.2019 95.30252,-159.9873 106.34997,-246.411903 0.80851,-6.325 1.78093,-16.3375 2.16093,-22.25 0.38,-5.9125 1.02368,-10.75 1.4304,-10.75 2.17346,0 5.97705,31.0535 6.61419,54 2.19267,78.968803 -26.99063,155.173303 -92.8679,242.500003 -24.12099,31.9748 -45.20179,56.7772 -94.56999,111.2656 -42.4839,46.8901 -69.2631,77.7275 -72.0969,83.0225 -0.8045,1.5033 -0.6433,1.844 0.8445,1.7849 5.5221,-0.2192 64.4025,54.2516 80.4522,74.427 10.0858,12.6784 21.745,30.6543 28.5877,44.0757 3.3436,6.5584 6.3325,11.9243 6.6419,11.9243 0.3094,0 3.7795,-2.9861 7.7114,-6.6358 25.3456,-23.5266 54.76939,-34.7371 91.14885,-34.7277 22.09928,0.01 33.3834,2.6971 54,12.8794 43.13031,21.3014 69.24397,63.9241 69.83477,113.9841 l 0.16523,14 -98,0.5 -97.99995,0.5 -0.3064,3.1559 c -0.4164,4.2903 4.1531,17.5018 8.5896,24.8345 8.09918,13.3862 23.57307,25.2317 40.71675,31.1691 7.33272,2.5396 9.25116,2.7736 23,2.8056 13.00159,0.03 15.99347,-0.2771 22.45693,-2.3067 15.66489,-4.9191 28.07004,-12.9426 39.95814,-25.8442 l 6.95011,-7.5427 20.55178,11.3642 c 11.41138,6.3101 20.55873,11.9861 20.56741,12.7625 0.0298,2.6613 -24.18005,25.4785 -33.93108,31.9794 -24.98677,16.6582 -48.65616,24.1269 -76.43428,24.1184 -35.08078,-0.011 -65.94076,-11.5435 -89.32496,-33.3817 -6.2551,-5.8415 -7.6157,-6.7039 -8.7075,-5.5188 -0.7117,0.7725 -3.2458,6.3545 -5.6314,12.4045 -5.9201,15.0141 -22.9836,48.9141 -33.4463,66.4478 -10.5796,17.7295 -23.798,37.7382 -38.0209,57.5522 -5.922,8.25 -9.878,14.2093 -8.791,13.2429 1.9195,-1.7067 2.3036,-1.4659 13.3896,8.3942 78.8007,70.08674 191.49044,144.01934 318.66345,209.06614 25.00126,12.7877 30.55784,15.8139 29,15.7935 -0.1375,0 -11.05,-4.6592 -24.25,-10.3498 z M 214.84173,981.49826 c 0.6846,-0.825 1.0198,-1.5 0.7448,-1.5 -0.275,0 -1.0602,0.675 -1.7448,1.5 -0.6847,0.825 -1.0199,1.5 -0.7449,1.5 0.275,0 1.0602,-0.675 1.7449,-1.5 z m 3,-4 c 0.6846,-0.825 1.0198,-1.5 0.7448,-1.5 -0.275,0 -1.0602,0.675 -1.7448,1.5 -0.6847,0.825 -1.0199,1.5 -0.7449,1.5 0.275,0 1.0602,-0.675 1.7449,-1.5 z m 7,-9 c 0.6846,-0.825 1.0198,-1.5 0.7448,-1.5 -0.275,0 -1.0602,0.675 -1.7448,1.5 -0.6847,0.825 -1.0199,1.5 -0.7449,1.5 0.275,0 1.0602,-0.675 1.7449,-1.5 z m 13.9675,-73.75 c 4.8571,-10.0375 11.0569,-23.875 13.7772,-30.75 4.8574,-12.2757 7.2731,-19.9353 5.4029,-17.1307 -0.7614,1.1418 -11.5849,0.2588 -65.1638,-5.3165 -47.2614,-4.918 -64.5457,-6.3909 -65.3661,-5.5706 -1.3418,1.3418 2.6964,9.2404 11.2239,21.9537 l 5.6584,8.436 18,8.3456 c 9.9,4.5901 29.5716,13.7844 43.7147,20.4319 l 25.7148,12.0862 -1.4905,2.8822 c -0.8197,1.5852 -1.2232,2.8822 -0.8965,2.8822 0.3266,0 4.5679,-8.2125 9.425,-18.25 z m 26.3887,-66.5 c 8.4534,-26.4696 13.7868,-60.3174 13.4329,-85.25 -0.1234,-8.6916 -0.313,-10.7427 -0.5323,-5.7585 -0.3102,7.0484 -0.5384,7.7821 -2.5488,8.1956 -1.2144,0.2498 -37.758,1.8274 -81.208,3.5058 -43.45,1.6784 -82.7125,3.3183 -87.25,3.6442 l -8.249997,0.5925 0,3.4679 c 0,5.9471 4.007997,23.2596 8.721697,37.6732 3.5529,10.864 4.9753,13.9881 6.649,14.6034 1.1711,0.4305 34.7543,5.8374 74.6293,12.0155 39.875,6.178 72.6875,11.419 72.9166,11.6466 1.1469,1.1391 2.0576,-0.01 3.4396,-4.3362 z m -71.0263,-100.3017 c 45.0065,-2.7321 82.244,-4.7116 82.75,-4.3989 3.9043,2.413 -3.17,-33.1572 -11.1855,-56.2419 -3.9161,-11.2785 -17.1267,-40.3075 -18.3432,-40.3075 -0.319,0 0.8109,2.7555 2.511,6.1234 1.7001,3.3678 2.7191,6.461 2.2644,6.8739 -0.4546,0.4128 -33.2266,8.6892 -72.8266,18.3921 -39.6,9.7028 -72.675,18.016 -73.5,18.4736 -3.2363,1.7953 -7.389597,22.2901 -8.591597,42.3957 -0.8791,14.7051 -0.667,15.0605 8.501197,14.2441 3.6247,-0.3228 43.4138,-2.8223 88.4203,-5.5545 z m 281.48832,-24.6885 c 0.4491,-3.1611 -7.60609,-19.5609 -13.2957,-27.069 -8.75607,-11.5546 -22.77419,-20.8258 -37.52257,-24.8162 -8.91822,-2.413 -28.12405,-2.4114 -36.91342,0 -22.6149,6.2124 -40.38463,23.7094 -47.66923,46.9377 -1.5789,5.0344 -1.6286,5.9394 -0.3706,6.7387 0.861,0.5471 28.75993,0.8261 68.45325,0.6846 l 67,-0.2387 0.31827,-2.2402 z m -296.45182,-63.2396 c 53.3857,-15.1062 64.1275,-17.8624 65.4576,-16.796 2.013,1.6141 -3.5615,-8.4087 -10.1361,-18.2242 -7.0779,-10.5671 -19.0001,-26.038 -22.348,-29 -2.4087,-2.1311 -2.5448,-2.1671 -0.9223,-0.2439 1.0469,1.2409 1.688,2.4716 1.4247,2.7349 -0.2632,0.2632 -19.123,8.248 -41.9105,17.7438 l -41.4318,17.2652 -6.0306,12.2194 c -7.3582,14.9094 -12.9484,29.5901 -12.1047,31.7888 0.3777,0.9842 1.3205,1.4226 2.3803,1.1067 0.9652,-0.2876 30.4949,-8.6553 65.6214,-18.5947 z m -6.633,-63.537 c 14.5217,-7.4343 26.8224,-13.2577 27.3348,-12.941 3.023,1.8683 -0.4081,-2.2073 -10.291,-12.2242 -10.4824,-10.6245 -11.1393,-11.5215 -9.9574,-13.5965 3.3268,-5.8408 -7.6307,7.7893 -16.0885,20.0125 -17.7507,25.6533 -21.4411,32.266 -18.0072,32.266 0.3334,0 12.4875,-6.0826 27.0093,-13.5168 z m 35.2666,-5.7961 c 0,-0.1721 -1.4625,-1.6346 -3.25,-3.25 l -3.25,-2.9371 2.937,3.25 c 2.7378,3.0295 3.563,3.7097 3.563,2.9371 z m -18,-46.1871 c 0.6846,-0.825 1.0198,-1.5 0.7448,-1.5 -0.275,0 -1.0602,0.675 -1.7448,1.5 -0.6847,0.825 -1.0199,1.5 -0.7449,1.5 0.275,0 1.0602,-0.675 1.7449,-1.5 z m 3,-4 c 0.6846,-0.825 1.0198,-1.5 0.7448,-1.5 -0.275,0 -1.0602,0.675 -1.7448,1.5 -0.6847,0.825 -1.0199,1.5 -0.7449,1.5 0.275,0 1.0602,-0.675 1.7449,-1.5 z m 181.13703,423.192 c -5.03612,-1.914 -10.66621,-7.0878 -13.03284,-11.9767 -2.48534,-5.134 -2.84417,-15.0086 -0.72934,-20.0701 1.946,-4.6575 7.27875,-10.4278 11.74058,-12.7041 5.7734,-2.9454 16.15741,-2.6866 21.38452,0.5328 4.88493,3.0087 5.20319,3.0366 6,0.5261 0.49369,-1.5555 1.51303,-2 4.58616,-2 l 3.95139,0 -0.26878,22.75 -0.26877,22.75 -3.75,0.3104 c -2.89272,0.2394 -3.75,-0.053 -3.75,-1.2814 0,-2.6415 -2.73877,-2.8536 -6.53708,-0.5061 -4.35759,2.6932 -14.35864,3.5569 -19.32584,1.6691 z m 16.86089,-8.1909 c 11.32487,-5.8564 11.65115,-22.5201 0.56812,-29.0152 -15.09151,-8.8442 -31.01963,9.8335 -20.72047,24.2973 4.08414,5.7357 13.7901,8.0079 20.15235,4.7179 z m 126.385,7.0968 c -15.98828,-7.4446 -18.00015,-30.2795 -3.63322,-41.2375 7.66116,-5.8434 19.21881,-6.3672 26.47552,-1.2 1.68267,1.1982 3.30263,1.7117 3.80738,1.207 0.48321,-0.4832 1.01104,-4.7011 1.17296,-9.373 l 0.29439,-8.4944 3.75,-0.3104 3.75,-0.3103 0,30.5603 0,30.5604 -3.59362,0 c -2.75262,0 -3.71602,-0.468 -4.11663,-2 -0.67669,-2.5876 -1.75379,-2.5172 -7.70923,0.5042 -6.45395,3.2743 -13.29847,3.306 -20.19755,0.094 z m 19.69535,-7.8717 c 1.85575,-1.2506 4.43712,-3.8381 5.73638,-5.75 3.2564,-4.7919 2.76441,-13.2171 -1.06499,-18.2377 -9.69079,-12.7053 -28.74971,-5.7348 -28.74971,10.5148 0,8.4012 7.46366,15.7467 16,15.7467 3.23712,0 5.75651,-0.7091 8.07832,-2.2738 z m 86.45615,9.0202 c -5.7156,-1.5091 -13.74854,-9.8241 -15.47635,-16.0198 -3.33445,-11.957 2.6134,-24.7491 13.65976,-29.3781 4.68796,-1.9645 15.945,-1.6849 20.7907,0.5165 7.52651,3.4192 13.49142,12.3072 13.49142,20.1029 l 0,4.0321 -17.91821,0 c -9.85502,0 -18.63002,0.2732 -19.5,0.607 -3.8362,1.4721 0.25383,9.2482 6.55515,12.4629 5.65594,2.8854 11.58568,2.2155 17.54025,-1.9817 4.3867,-3.092 4.47844,-3.1093 7.38235,-1.3939 1.61725,0.9553 2.94046,2.0992 2.94046,2.5419 0,1.175 -8.60268,7.0687 -12.31594,8.4377 -3.90942,1.4414 -11.83771,1.4749 -17.14959,0.072 z m 21.42703,-28.2 c 2.65237,-3.1959 -4.41871,-10.4762 -11.66216,-12.0071 -6.04184,-1.277 -16.29934,5.5082 -16.29934,10.7818 0,2.263 1.4117,2.5139 14.62756,2.6 9.46052,0.062 12.39285,-0.2408 13.33394,-1.3747 z m 40.37825,28.0791 c -2.28814,-0.7488 -5.59248,-2.3813 -7.34298,-3.6278 l -3.18272,-2.2663 2.54872,-2.5487 2.54872,-2.5487 4.79425,2.5558 c 6.45347,3.4403 9.63316,4.0653 14.29511,2.81 3.82484,-1.0299 6.99915,-4.0993 6.99915,-6.7677 0,-3.0985 -4.68775,-5.9946 -11.74418,-7.2557 -10.08485,-1.8023 -15.45806,-4.7261 -16.95655,-9.2268 -2.06536,-6.2033 1.00743,-13.2436 7.02697,-16.1001 5.07502,-2.4083 15.57079,-2.1796 21.73838,0.4737 5.3659,2.3083 5.983,3.6188 2.98274,6.334 -1.87086,1.6931 -2.13541,1.6786 -6.31573,-0.3451 -8.03402,-3.8892 -17.75703,-1.5784 -17.71632,4.2105 0.03,4.268 2.44277,5.8669 11.48469,7.6105 9.75306,1.8807 14.37956,3.9333 16.0213,7.1081 3.29196,6.3659 0.5489,14.2616 -6.35562,18.2941 -4.25316,2.4839 -15.12072,3.1572 -20.82593,1.2902 z m 54.80661,-0.4784 c -2.94451,-1.0505 -6.29112,-2.8474 -7.43693,-3.9932 -2.02804,-2.0281 -2.03444,-2.1373 -0.24137,-4.1186 2.29056,-2.531 3.98237,-2.5628 7.38674,-0.1387 8.75711,6.2356 21.1452,3.9435 21.1452,-3.9125 0,-3.875 -2.53953,-5.3856 -12.32256,-7.33 -12.81174,-2.5463 -17.20941,-6.344 -16.28985,-14.0675 0.57706,-4.8467 3.20368,-8.5507 7.68349,-10.835 4.74341,-2.4188 16.05515,-2.3315 21.55555,0.1663 5.32429,2.4177 6.10558,3.7944 3.58435,6.3156 l -2.03172,2.0317 -4.40536,-2.1326 c -8.53431,-4.1314 -17.7739,-1.627 -17.7739,4.8176 0,3.9955 1.83312,5.0711 12.26114,7.194 13.07593,2.662 17.29488,6.3438 16.35127,14.2692 -0.95262,8.0011 -7.06941,12.649 -17.44333,13.2544 -4.82934,0.2819 -8.14594,-0.1376 -12.02272,-1.5207 z m 62.44437,0.3404 c -9.80693,-3.7455 -15.60738,-12.29 -15.56877,-22.9338 0.0527,-14.5203 10.02707,-23.7759 25.62237,-23.7759 6.00386,0 8.03672,0.4676 12.43908,2.8611 17.33512,9.425 16.71768,33.8784 -1.08341,42.9082 -4.70846,2.3884 -16.28636,2.897 -21.40927,0.9404 z m 18.51139,-8.7456 c 3.943,-2.6203 7.89788,-9.7793 7.89788,-14.2965 0,-5.1905 -4.03963,-11.5368 -9.05274,-14.222 -15.57607,-8.3429 -31.28785,10.2546 -20.94033,24.7864 4.34533,6.1024 15.65407,8.0126 22.09519,3.7321 z m 186.8914,9.3238 c -9.84555,-2.9949 -16.46915,-10.8245 -17.65485,-20.8694 -1.1272,-9.5496 4.158,-19.5024 12.66135,-23.8429 5.8419,-2.982 16.5838,-3.1985 22.5,-0.4535 7.87,3.6515 13.5,12.0206 13.5,20.068 l 0,4.0321 -17.9182,0 c -9.855,0 -18.63,0.2732 -19.5,0.607 -2.11765,0.8126 -1.98825,3.2142 0.3827,7.1027 2.28,3.7393 8.6256,7.2903 13.0278,7.2903 3.8052,0 9.7641,-2.4225 12.6671,-5.1497 2.1367,-2.0074 2.2569,-2.0128 5.2636,-0.2367 1.6924,0.9997 3.077,2.1799 3.077,2.6226 0,1.175 -8.6027,7.0687 -12.3159,8.4377 -3.6015,1.3278 -11.9297,1.5358 -15.6906,0.3918 z m 19.9831,-28.5374 c 0.9834,-1.185 0.7935,-2.1641 -0.9741,-5.0243 -4.1288,-6.6804 -11.9948,-8.876 -18.9796,-5.2976 -5.3367,2.734 -8.91905,8.009 -7.0051,10.3151 1.7795,2.1441 25.1801,2.1499 26.9588,0.01 z m 42.0234,5.9717 0,-23.5 2.75,-0.017 c 6.0182,-0.038 17.1629,-3.1514 24.75,-6.9142 14.668,-7.2745 24.1441,-18.1881 29.1471,-33.5684 2.0811,-6.398 2.7035,-10.6533 3.108,-21.25 0.3944,-10.3312 0.2251,-13.25 -0.7682,-13.25 -0.7007,0 -4.9518,3.5308 -9.4469,7.8463 -18.5109,17.7711 -36.4571,23.9696 -66.2832,22.8934 -11.9946,-0.4327 -16.4322,-1.0298 -23.7075,-3.1898 -37.87175,-11.2441 -62.09346,-42.1468 -67.44636,-86.0499 -0.7022,-5.7593 -1.09834,-34.797 -1.10014,-80.643 -0.003,-64.4083 0.15692,-71.7043 1.57897,-72.25 2.31618,-0.8888 45.70423,-0.7124 47.12663,0.1916 0.9229,0.5865 1.2772,18.7142 1.5,76.7347 l 0.2916,75.9667 2.7904,7.8914 c 8.288,23.439 25.4771,34.6086 53.2597,34.6086 12.5499,0 22.8467,-2.1405 31.5759,-6.5639 7.6511,-3.8771 17.2444,-13.8663 20.977,-21.8425 6.5732,-14.0467 6.2667,-9.8208 6.6409,-91.5608 0.2599,-56.7773 0.6278,-74.6495 1.5485,-75.2347 1.6176,-1.0281 45.8596,-0.9883 47.4843,0.043 1.0268,0.6516 1.2215,24.8721 0.9947,123.7347 l -0.2819,122.9245 -2.7496,10 c -8.7103,31.6778 -30.8863,55.6706 -63.2399,68.4208 -10.9633,4.3206 -27.4355,8.0792 -35.4071,8.0792 l -5.0929,0 0,-23.5 z m -630.20245,19 c -6.59835,-4.8415 -6.95405,-6.6745 -6.5976,-34 l 0.30003,-23 3.69911,-0.3073 3.6991,-0.3073 0.3009,24.1758 0.30089,24.1759 4.43816,3.8208 c 4.11247,3.5404 4.35254,4.0087 3.27144,6.3814 -1.55683,3.4169 -3.77713,3.1953 -9.41203,-0.9393 z m 419.8691,2.8333 c -0.36667,-0.3666 -0.66667,-10.7166 -0.66667,-23 l 0,-22.3333 4,0 c 2.92532,0 4,0.4115 4,1.5314 0,2.6613 2.61188,2.6717 6.51047,0.026 5.28068,-3.5836 14.43381,-3.6389 19.61448,-0.1185 6.46359,4.3921 7.37505,7.7365 7.37505,27.061 l 0,17 -3.5,0 -3.5,0 -0.5,-15.5 c -0.319,-9.889 -0.96323,-16.3107 -1.77964,-17.7396 -3.21506,-5.6271 -13.84864,-7.1269 -19.11438,-2.6961 -4.16502,3.5046 -5.0939,7.7272 -5.1004,23.1857 l -0.006,13.25 -3.33333,0 c -1.83334,0 -3.63334,-0.3 -4,-0.6666 z m 67,0 c -0.36667,-0.3666 -0.66667,-10.7166 -0.66667,-23 l 0,-22.3333 4,0 c 2.92532,0 4,0.4115 4,1.5314 0,2.6873 2.62632,2.6623 6.62092,-0.063 3.45745,-2.3588 4.6245,-2.6054 10.73702,-2.2687 6.54491,0.3606 7.03246,0.565 10.68116,4.4765 5.20317,5.5781 6.0637,9.6318 5.73788,27.0308 l -0.27698,14.793 -3.66116,0.3051 -3.66115,0.305 -0.33885,-15.805 c -0.36769,-17.1508 -1.1169,-19.7439 -6.39992,-22.151 -4.19043,-1.9093 -10.82302,-1.4264 -13.92524,1.0138 -4.61388,3.6293 -5.51368,7.3501 -5.51368,22.8 l 0,14.0321 -3.33333,0 c -1.83334,0 -3.63334,-0.3 -4,-0.6667 z m -606.59862,-5.5833 c -1.0234,-2.3375 -5.2824,-11.8212 -9.4644,-21.0749 -4.182,-9.2537 -7.6036,-17.2412 -7.6036,-17.75 0,-0.5088 1.7884,-0.9251 3.9743,-0.9251 4.5875,0 4.6889,0.1469 10.0159,14.5 3.9153,10.5493 5.1073,12.2924 6.9159,10.1131 0.6789,-0.818 3.1871,-6.5781 5.5737,-12.8002 l 4.3394,-11.3129 4.6934,-0.309 c 2.6337,-0.1734 4.5384,0.1023 4.3404,0.6282 -2.5858,6.8652 -19.4892,43.1808 -20.0989,43.1808 -0.4539,0 -1.6626,-1.9125 -2.6861,-4.25 z m 146.93195,-25.25 0,-3.5 8.5,0 8.5,0 0,3.5 0,3.5 -8.5,0 -8.5,0 0,-3.5 z m 111,-21.9018 0,-7.5982 3.5499,0 3.54991,0 -0.29991,5.5461 c -0.27184,5.0271 -0.604,5.7381 -3.5499,7.5982 l -3.25,2.0521 0,-7.5982 z m 31.64092,-158.0313 c -29.61037,-65.6923 -53.54136,-119.919 -53.17997,-120.5037 0.82897,-1.3413 51.38659,-1.4453 53.49751,-0.11 0.80216,0.5074 12.98319,30.7628 27.06897,67.2343 16.93181,43.8404 26.12372,66.4105 27.12496,66.6033 1.14782,0.2211 7.75623,-15.8775 27.29782,-66.4995 14.18086,-36.7352 26.29332,-67.1219 26.91659,-67.526 1.52433,-0.9882 51.80321,-0.9443 53.36319,0.047 0.89006,0.5654 -13.64235,33.7789 -52.58392,120.1794 -29.59765,65.6689 -54.23111,119.537 -54.74101,119.707 -0.5099,0.1699 -25.15376,-53.4392 -54.76414,-119.1315 z m 196.96607,113.8513 c -0.33385,-0.87 -0.60699,-53.6899 -0.60699,-117.3775 0,-97.0872 0.22237,-115.9804 1.37638,-116.9381 0.96227,-0.7986 7.95735,-1.0611 23.25,-0.8724 l 21.87362,0.2698 0.5,11.9195 c 0.31726,7.5631 0.91302,12.0561 1.63007,12.2933 0.62154,0.2057 2.60129,-2.2331 4.39944,-5.4194 8.57048,-15.187 25.68635,-25.2934 42.83605,-25.2934 11.00531,0 26.13444,4.6085 26.13444,7.9609 0,2.0755 -15.78957,46.1882 -16.95985,47.3822 -0.45449,0.4637 -1.88695,0.1614 -3.18325,-0.6717 -4.45962,-2.8663 -13.88954,-4.9478 -19.69904,-4.3482 -12.2359,1.2628 -24.61195,10.7386 -29.35411,22.4752 l -2.30375,5.7016 -0.28317,82.25 -0.28317,82.25 -24.35984,0 c -21.2905,0 -24.43632,-0.1993 -24.96683,-1.5818 z M 331.84173,567.68896 c -10.6914,-3.0967 -18.7444,-9.3996 -22.8528,-17.8866 -3.4425,-7.1111 -4.2312,-15.2069 -3.9265,-40.3041 l 0.2793,-23 7.5,0 7.5,0 0.5,26 c 0.5495,28.5782 0.6219,28.9336 7.1646,35.1887 4.1688,3.9855 7.6225,5.3113 13.8354,5.3113 6.1069,0 8.8214,-1.0263 13.43994,-5.0814 6.89873,-6.0572 7.00494,-6.5548 7.56001,-35.4186 l 0.5,-26 7.30581,-0.2949 7.30582,-0.295 -0.30582,29.295 c -0.29693,28.4444 -0.37415,29.4324 -2.65946,34.0311 -5.63884,11.347 -17.29519,18.6491 -30.8971,19.3555 -4.6288,0.2403 -9.5613,-0.1225 -12.2492,-0.901 z m 382.4585,-0.086 c -12.8855,-3.1305 -22.4186,-10.6986 -28.19267,-22.3816 -3.66901,-7.4238 -3.76588,-7.9046 -3.76588,-18.6927 0,-10.5843 0.15089,-11.3794 3.4196,-18.0191 6.42314,-13.0472 18.13817,-21.4706 33.07669,-23.7829 25.16252,-3.8948 49.00371,16.9381 49.00371,42.8204 l 0,3.4508 -31.75,0.014 c -17.4625,0.01 -32.7625,0.285 -34,0.6166 -2.83323,0.7593 -2.95932,4.059 -0.35053,9.1727 4.53477,8.8889 13.52498,14.1775 24.10053,14.1775 7.5924,0 14.23906,-2.7211 20.3891,-8.347 l 3.88911,-3.5578 5.84903,3.2122 c 3.21697,1.7667 5.85437,3.7329 5.86089,4.3695 0.0186,1.8128 -9.88772,10.2581 -15.17623,12.938 -10.1382,5.1374 -21.77527,6.5796 -32.35335,4.0098 z m 33.86198,-49.998 c 0.88462,-2.3053 -3.26067,-9.3844 -7.87199,-13.4435 -12.21227,-10.7497 -30.78498,-7.3156 -38.43601,7.1067 -4.13574,7.7959 -4.32731,7.7297 22.3491,7.7297 19.09881,0 23.5231,-0.2572 23.9589,-1.3929 z m 144.67947,50.3731 c -5.45077,-1.1313 -19.92174,-8.1313 -22.34478,-10.8087 -1.68416,-1.861 -1.5714,-2.1232 3.0961,-7.1993 l 4.84392,-5.268 4.668,3.5632 c 12.55048,9.58 30.04106,10.5177 36.76396,1.9709 2.32822,-2.9599 2.56339,-7.9501 0.51263,-10.878 -1.97148,-2.8147 -4.96572,-3.8886 -19.03983,-6.8289 -14.60006,-3.0502 -23.44926,-7.0952 -26.57048,-12.1455 -4.87288,-7.8844 -3.3956,-18.4267 3.68581,-26.303 7.39197,-8.2216 19.73862,-11.5938 33.33299,-9.104 6.33642,1.1605 16.66645,5.3354 20.4997,8.2849 1.8937,1.4571 1.83916,1.6417 -1.95548,6.6176 -2.14693,2.8152 -3.95684,5.1186 -4.02203,5.1186 -0.0652,0 -3.59693,-1.8 -7.84832,-4 -6.4486,-3.337 -8.7046,-4 -13.6109,-4 -3.2346,0 -7.14789,0.4786 -8.69619,1.0636 -8.41824,3.1806 -11.06608,11.4438 -5.23837,16.3475 1.69219,1.4239 3.37969,2.5889 3.75,2.5889 3.605,1e-4 29.69718,6.2266 32.86527,7.8429 7.52803,3.8405 10.95134,10.6348 10.00043,19.8482 -0.99616,9.6519 -6.68283,16.763 -17.08464,21.3642 -5.50273,2.4341 -20.21259,3.4597 -27.60779,1.9249 z m 232.26452,-0.5218 c -15.7703,-4.2471 -26.8343,-15.025 -30.7125,-29.9185 -6.551,-25.1577 9.6976,-49.1098 35.7999,-52.7725 13.2298,-1.8565 25.336,2.0412 35.1402,11.3136 5.8518,5.5344 11.1302,14.7048 12.1559,21.1191 0.3342,2.09 1.0001,3.7999 1.4798,3.7999 0.4797,0 0.8724,2.3625 0.8727,5.25 l 5e-4,5.25 -32.774,-0.2759 c -37.5926,-0.3164 -37.4764,-0.3377 -35.4247,6.5105 1.7171,5.7311 8.1526,12.5695 14.3296,15.2268 4.2023,1.8078 6.5736,2.1643 12.2877,1.8476 8.0896,-0.4484 12.6162,-2.3279 18.8746,-7.8367 l 4.3434,-3.8233 6.2811,3.5397 6.2811,3.5397 -4.7873,4.8604 c -11.2811,11.4533 -29.0569,16.4338 -44.148,12.3696 z m 34.3367,-49.8614 c 1.3182,-3.4354 -6.5696,-13.9779 -12.9121,-17.2578 -7.8642,-4.0667 -20.7916,-2.4896 -27.7778,3.3889 -3.4852,2.9326 -8.2979,11.8221 -7.5108,13.8731 0.7966,2.0761 47.404,2.0719 48.2007,0 z m -110.1012,46.7728 c -8.1218,-4.8123 -11.3205,-7.955 -14.1167,-13.8698 -2.2463,-4.7515 -2.3642,-6.0273 -2.3735,-25.6682 -0.01,-11.3675 -0.2829,-21.38 -0.6168,-22.25 -0.426,-1.1102 -1.9166,-1.5818 -5,-1.5818 l -4.393,0 0,-7.5 0,-7.5 4.393,0 c 5.4244,0 5.607,-0.4073 5.607,-12.5108 l 0,-9.3473 5.75,-1.6275 c 3.1625,-0.8952 6.5375,-1.8575 7.5,-2.1384 1.5947,-0.4654 1.75,0.5083 1.75,10.9748 0,6.3171 0.2731,12.1974 0.607,13.0674 0.4659,1.2142 2.0929,1.5818 7,1.5818 l 6.393,0 0,7.5 0,7.5 -6.4809,0 c -6.0448,0 -6.5224,0.165 -7.0962,2.4514 -0.3384,1.3482 -0.4595,10.6857 -0.2691,20.75 0.4053,21.4214 0.7611,22.4289 10.0004,28.315 3.2152,2.0483 5.8458,4.1662 5.8458,4.7065 0,2.1798 -5.6013,10.7726 -7,10.7385 -0.825,-0.02 -4.2,-1.6363 -7.5,-3.5916 z m -628.50002,-37.8698 0,-40.5876 7.25,0.2938 7.25,0.2938 0.3213,3.5 c 0.48413,5.2739 1.6471,5.6739 5.82656,2.0043 6.21974,-5.461 11.74214,-7.422 20.85214,-7.4048 10.01621,0.019 15.52025,2.45 22.25054,9.8274 8.247,9.04 8.74946,11.571 8.74946,44.0731 l 0,28 -7.5,0 -7.5,0 -0.5,-26.5 c -0.49005,-25.9724 -0.54977,-26.5882 -3,-30.9298 -3.76827,-6.677 -9.45004,-9.3658 -18.62609,-8.8146 -8.7906,0.5281 -13.28989,3.0443 -17.13276,9.5814 l -2.74115,4.663 -0.5,26 -0.5,26 -7.25,0.2938 -7.25,0.2938 0,-40.5876 z m 115.45664,39.2476 c -0.26432,-0.6888 -0.3627,-18.8013 -0.21861,-40.25 l 0.26197,-38.9976 7.25,-0.2938 7.25,-0.2938 0,40.5438 0,40.5438 -7.03138,0 c -4.70979,0 -7.19007,-0.4135 -7.51198,-1.2524 z m 269,0 c -0.26432,-0.6888 -0.3627,-18.8013 -0.21861,-40.25 l 0.26197,-38.9976 6.63065,-0.293 6.63065,-0.2929 0.66466,3.5429 c 0.36557,1.9487 1.12449,3.543 1.68651,3.543 0.56201,0 2.46012,-1.525 4.21803,-3.3889 1.75791,-1.864 5.05928,-3.9472 7.33639,-4.6294 4.58626,-1.3741 11.15513,-0.6091 11.92164,1.3884 0.26588,0.6929 -0.5504,4.1556 -1.81396,7.6948 l -2.29737,6.4351 -4.9886,-0.3215 c -3.93633,-0.2538 -5.72687,0.176 -8.4886,2.0373 -6.277,4.2305 -6.4642,5.2317 -6.83132,36.5342 l -0.33132,28.25 -6.95006,0 c -4.64465,0 -7.10949,-0.4154 -7.43066,-1.2524 z m 167.54333,-39.2476 0,-40.5876 7.25,0.2938 7.25,0.2938 0,40 0,40 -7.25,0.2938 -7.25,0.2938 0,-40.5876 z m -372.30551,0.1663 c -9.73195,-21.654 -17.69446,-39.6623 -17.69446,-40.0185 0,-0.3563 3.78292,-0.6478 8.40649,-0.6478 l 8.4065,0 5.73122,14.75 c 10.95579,28.1961 12.07116,30.7448 13.58148,31.0357 1.12299,0.2163 3.6651,-5.3203 9.87038,-21.4972 4.59681,-11.9837 8.78331,-22.351 9.30333,-23.0385 1.15962,-1.5331 16.7006,-1.7638 16.7006,-0.2479 0,1.7257 -34.81243,78.4354 -35.7352,78.743 -0.48174,0.1606 -8.83839,-17.4249 -18.57034,-39.0788 z m -466.87171,-26.3013 c -18.2693,-15.9424 -42.882697,-40.4208 -52.839097,-52.5493 -20.8827,-25.4385 -34.1931,-52.0983 -39.9427,-80.002 -6.6266,-32.1607 -4.9242,-71.0185 4.9233,-112.3727 3.387,-14.2236 9.1284,-33.6817 9.7537,-33.0564 0.2182,0.2183 -0.7653,6.3568 -2.1857,13.6413 -5.6255,28.8511 -7.1818,62.2883 -4.0213,86.3977 4.9011,37.3879 20.4453,71.4371 47.2975,103.6038 10.574797,12.6677 35.602297,36.7445 52.985297,50.9726 7.7275,6.325 14.0852,12.0866 14.1282,12.8034 0.076,1.2648 -15.3798,20.385 -16.9798,21.0057 -0.4381,0.17 -6.3419,-4.5299 -13.1194,-10.4441 z m 405.67725,-24.5728 c -3.12644,-1.793 -4.4337,-4.0129 -4.4682,-7.5876 -0.0701,-7.2652 9.80749,-11.1979 14.79389,-5.8901 6.6241,7.051 -1.9706,18.2693 -10.32569,13.4777 z m 435.13487,-0.8648 c -2.1086,-1.6586 -2.6349,-2.922 -2.6349,-6.3257 0,-5.424 3.0306,-8.6017 8.2037,-8.6017 4.6636,0 7.713,2.5996 8.45,7.2036 0.5126,3.202 0.1803,4.1162 -2.4535,6.75 -3.6415,3.6416 -7.7356,3.9863 -11.5653,0.9738 z m 149.56035,-5.6443 0.3048,-4.7168 12.2697,-3.208 c 6.7483,-1.7644 13.6108,-3.5026 15.25,-3.8626 l 2.9803,-0.6546 0,5.0409 c 0,5.7502 2.1524,4.586 -17.6812,9.5631 -13.8364,3.4722 -13.4913,3.529 -13.1236,-2.162 z m -968.99677,-25.9129 c -5.5214,-2.0168 -15.0473,-10.8333 -18.4116,-17.0407 -5.8842,-10.8565 -7.2887,-17.4923 -7.2658,-34.3295 0.024,-18.0644 1.1849,-23.4966 8.066,-37.7601 10.9645,-22.7275 30.8583,-34.5706 48.3257,-28.7689 10.2631,3.4089 20.546,15.838 24.533,29.6536 9.3774,32.4937 -5.1347,74.2548 -30.0517,86.479 -7.1953,3.5299 -18.2466,4.3048 -25.1956,1.7666 z m 102.9253,-110.8832 c -19.9349,-5.6012 -39.8646,-25.4854 -50.0259,-49.9118 -16.6235,-39.9606 -8.2211,-84.0153 18.3435,-96.1769 31.0713,-14.225 70.5613,17.3926 82.7601,66.2618 2.9394,11.7753 3.2009,34.5085 0.5101,44.3399 -4.4426,16.2319 -13.4477,28.3646 -24.8512,33.4822 -7.5985,3.41 -18.7573,4.2467 -26.7366,2.0048 z"
         style="fill:#fd6505" />
      <g
         transform="translate(-29.546753,3.6933435)"
         id="g3857">
        <path
           style="fill:#0034c4"
           d="M 79.918352,1143.5934 C 205.94301,1014.0162 282.9865,891.96584 303.89768,788.77092 c 7.85429,-38.76026 7.16744,-78.06816 -1.94884,-111.531 -13.35999,-49.04007 -43.55011,-97.68979 -85.2392,-137.35828 l -7.59822,-7.22995 8.76595,-11.4974 8.76594,-11.4974 2.62256,1.87683 c 5.69273,4.07399 29.16954,24.12258 40.84062,34.87683 28.04215,25.83928 50.81411,54.83564 64.78333,82.49095 3.40143,6.73393 6.52295,11.71009 7.34568,11.71009 0.78688,0 4.98592,-3.39665 9.3312,-7.54811 21.89225,-20.91573 49.83236,-32.21245 84.22893,-34.05537 40.87989,-2.19028 83.51828,19.96799 107.03146,55.62201 13.33957,20.22734 20.46977,44.36281 20.86706,70.63423 l 0.19428,12.84724 -98,0.5 -98,0.5 -0.35274,2.5 c -0.61112,4.33121 1.85965,13.19392 6.1332,22 3.3546,6.91249 5.81474,10.19681 13.17228,17.5852 7.63599,7.66802 10.52915,9.8144 18.54726,13.7599 17.91689,8.81642 36.15781,11.06741 54.46029,6.72058 16.16432,-3.83902 33.66008,-14.46363 44.67858,-27.13187 2.83858,-3.2636 5.71689,-5.93381 6.39624,-5.93381 0.67935,0 9.81279,4.79957 20.29653,10.66572 16.72751,9.35982 18.94307,10.88672 18.09533,12.47075 -0.53132,0.99276 -5.37426,6.20569 -10.76211,11.58428 -27.76947,27.72176 -61.2608,42.27925 -97.26872,42.27925 -36.00027,0 -65.17816,-11.21224 -91.29601,-35.08248 -3.0857,-2.82016 -6.20076,-4.90102 -6.92233,-4.62412 -0.72158,0.2769 -3.96198,6.96166 -7.20089,14.85502 -22.08259,53.81628 -60.14651,113.14603 -114.42421,178.35158 -38.27854,45.98521 -93.39486,103.19571 -142.104705,147.50391 -16.623101,15.1209 -16.514334,14.5561 0.581927,-3.0221 z M 506.31332,698.20209 c 0.91515,-1.10268 0.50954,-3.1216 -1.86332,-9.27463 -8.78155,-22.77132 -27.53019,-40.01572 -50.06157,-46.04503 -10.0715,-2.6951 -29.2969,-2.40854 -39,0.5813 -11.40815,3.51522 -19.52589,8.49936 -28.60011,17.55993 -6.64749,6.63749 -8.93193,9.7916 -12.73849,17.58793 -5.8395,11.96005 -7.73659,18.70838 -5.63322,20.03858 0.87018,0.55031 29.11616,0.93705 69.09938,0.94611 56.97714,0.0129 67.81178,-0.20667 68.79733,-1.39419 z m 594.07508,216.19392 0,-22.50906 5.4618,-0.64193 c 20.9229,-2.45907 38.9439,-14.62104 47.6137,-32.13343 5.0312,-10.16261 6.8853,-19.08804 6.9071,-33.25 0.021,-13.3582 -0.8225,-14.06046 -8.0244,-6.68325 -10.9772,11.24445 -24.4218,19.53939 -38.0651,23.485 -11.3008,3.26815 -35.0868,3.83023 -48.0952,1.13652 -18.4833,-3.82743 -32.0519,-11.27697 -45.7979,-25.14426 -16.3849,-16.52951 -25.38399,-37.30444 -27.95861,-64.54401 -0.60273,-6.37694 -1.04004,-39.8941 -1.04052,-79.75 l -8.4e-4,-68.75 23.99997,0 24,0 0,72.41203 c 0,79.51972 0.1502,81.901 5.9487,94.29213 6.0279,12.8812 19.4585,23.29815 34.6646,26.88622 8.8523,2.08881 25.7356,2.09899 34.6205,0.0209 16.6864,-3.9028 28.8854,-13.41166 35.8571,-27.94985 6.8485,-14.28129 6.9091,-15.11184 6.9091,-94.74938 l 0,-70.91203 24.0302,0 24.0302,0 -0.3121,122.75 c -0.31,121.93112 -0.3264,122.80337 -2.4603,130.75 -6.1537,22.91714 -18.4022,41.1725 -36.7603,54.78831 -16.7173,12.39891 -38.3151,20.70485 -58.2119,22.38675 l -7.3158,0.61841 0,-22.50905 z m -409.42388,-76.7961 c -1.44976,-3.01858 -25.53183,-56.33832 -53.5157,-118.48832 l -50.87977,-113 26.09273,-0.26696 c 14.351,-0.14683 26.43565,0.0782 26.85477,0.5 0.41913,0.42183 12.23039,30.46696 26.24726,66.76696 14.01686,36.3 26.17919,66.43989 27.02739,66.97752 1.00448,0.6367 1.85619,0.6367 2.44279,0 0.70265,-0.76265 19.82205,-49.8539 51.88767,-133.22752 0.36778,-0.95628 6.68242,-1.25 26.87376,-1.25 14.51615,0 26.39301,0.28594 26.39301,0.63542 0,0.69723 -102.17286,227.71558 -105.02382,233.3529 l -1.76415,3.48832 -2.63594,-5.48832 z m 146.42391,-114.98832 0,-117 22,0 22,0 0,11.3 c 0,10.58335 0.70626,13.7 3.10454,13.7 0.3875,0 2.15309,-2.56669 3.92355,-5.70376 9.86681,-17.48303 28.30264,-27.62355 47.10357,-25.90903 8.02442,0.73177 19.77873,4.21571 20.4917,6.07367 0.46026,1.19941 -13.69353,42.41658 -15.65611,45.59212 -0.61205,0.99031 -1.95477,0.76847 -6.07393,-1.00355 -7.31037,-3.14484 -15.13226,-3.69875 -22.46521,-1.59088 -11.51003,3.30858 -18.80523,9.70264 -24.19411,21.20554 l -2.734,5.83589 -0.28317,82.25 -0.28317,82.25 -23.46683,0 -23.46683,0 0,-117 z m -677,-233.61098 c -19.1732,-16.9391 -42.37284,-40.25032 -51,-51.24528 -34.462979,-43.92169 -46.539727,-87.46459 -40.471933,-145.92218 1.491311,-14.36741 7.049709,-44.22333 9.908473,-53.22156 1.840744,-5.79392 1.852201,-4.6127 0.06789,7 -5.663395,36.85868 -3.225952,73.33788 7.005623,104.84736 7.060317,21.74318 21.996667,47.98941 38.784657,68.15264 13.25606,15.9212 41.74669,42.83548 64.18142,60.63035 l 3.94656,3.13035 -5.64979,6.86965 c -3.10739,3.77831 -6.915,8.35081 -8.46135,10.16112 l -2.81155,3.29146 -15.5,-13.69391 z m 23.5,-54.6812 c -6.74599,-3.23468 -11.14567,-7.11508 -15.131,-13.34515 -13.03793,-20.38157 -12.28063,-55.39737 1.70771,-78.95997 4.9528,-8.34272 14.3281,-17.52408 21.42329,-20.98012 5.1206,-2.49423 7.17253,-2.92004 14,-2.90527 6.33772,0.0137 8.87731,0.4825 12.2222,2.25614 9.34246,4.95386 15.37167,12.60159 19.96809,25.32842 2.46027,6.81215 2.67736,8.66543 2.74081,23.39813 0.08,18.58371 -1.5567,26.11378 -8.68204,39.94341 -4.98897,9.68313 -15.69109,20.96906 -23.24906,24.51731 -7.59086,3.56369 -18.4492,3.88818 -25,0.7471 z"
           id="path2386"
           inkscape:connector-curvature="0" />
      </g>
    </g>
  </g>
</svg>
